<svg width="1920" height="1090" viewBox="0 0 1920 1090" fill="none" xmlns="http://www.w3.org/2000/svg">
<g clip-path="url(#clip0_2_364)">
<rect x="-1" width="1" height="1090" fill="#e5e7eb"/>
<rect x="31" width="1" height="1090" fill="#e5e7eb"/>
<rect x="63" width="1" height="1090" fill="#e5e7eb"/>
<rect x="95" width="1" height="1090" fill="#e5e7eb"/>
<rect x="127" width="1" height="1090" fill="#e5e7eb"/>
<rect x="159" width="1" height="1090" fill="#e5e7eb"/>
<rect x="191" width="1" height="1090" fill="#e5e7eb"/>
<rect x="223" width="1" height="1090" fill="#e5e7eb"/>
<rect x="255" width="1" height="1090" fill="#e5e7eb"/>
<rect x="287" width="1" height="1090" fill="#e5e7eb"/>
<rect x="319" width="1" height="1090" fill="#e5e7eb"/>
<rect x="351" width="1" height="1090" fill="#e5e7eb"/>
<rect x="383" width="1" height="1090" fill="#e5e7eb"/>
<rect x="415" width="1" height="1090" fill="#e5e7eb"/>
<rect x="447" width="1" height="1090" fill="#e5e7eb"/>
<rect x="479" width="1" height="1090" fill="#e5e7eb"/>
<rect x="511" width="1" height="1090" fill="#e5e7eb"/>
<rect x="543" width="1" height="1090" fill="#e5e7eb"/>
<rect x="575" width="1" height="1090" fill="#e5e7eb"/>
<rect x="607" width="1" height="1090" fill="#e5e7eb"/>
<rect x="639" width="1" height="1090" fill="#e5e7eb"/>
<rect x="671" width="1" height="1090" fill="#e5e7eb"/>
<rect x="703" width="1" height="1090" fill="#e5e7eb"/>
<rect x="735" width="1" height="1090" fill="#e5e7eb"/>
<rect x="767" width="1" height="1090" fill="#e5e7eb"/>
<rect x="799" width="1" height="1090" fill="#e5e7eb"/>
<rect x="831" width="1" height="1090" fill="#e5e7eb"/>
<rect x="863" width="1" height="1090" fill="#e5e7eb"/>
<rect x="895" width="1" height="1090" fill="#e5e7eb"/>
<rect x="927" width="1" height="1090" fill="#e5e7eb"/>
<rect x="959" width="1" height="1090" fill="#e5e7eb"/>
<rect x="991" width="1" height="1090" fill="#e5e7eb"/>
<rect x="1023" width="1" height="1090" fill="#e5e7eb"/>
<rect x="1055" width="1" height="1090" fill="#e5e7eb"/>
<rect x="1087" width="1" height="1090" fill="#e5e7eb"/>
<rect x="1119" width="1" height="1090" fill="#e5e7eb"/>
<rect x="1151" width="1" height="1090" fill="#e5e7eb"/>
<rect x="1183" width="1" height="1090" fill="#e5e7eb"/>
<rect x="1215" width="1" height="1090" fill="#e5e7eb"/>
<rect x="1247" width="1" height="1090" fill="#e5e7eb"/>
<rect x="1279" width="1" height="1090" fill="#e5e7eb"/>
<rect x="1311" width="1" height="1090" fill="#e5e7eb"/>
<rect x="1343" width="1" height="1090" fill="#e5e7eb"/>
<rect x="1375" width="1" height="1090" fill="#e5e7eb"/>
<rect x="1407" width="1" height="1090" fill="#e5e7eb"/>
<rect x="1439" width="1" height="1090" fill="#e5e7eb"/>
<rect x="1471" width="1" height="1090" fill="#e5e7eb"/>
<rect x="1503" width="1" height="1090" fill="#e5e7eb"/>
<rect x="1535" width="1" height="1090" fill="#e5e7eb"/>
<rect x="1567" width="1" height="1090" fill="#e5e7eb"/>
<rect x="1599" width="1" height="1090" fill="#e5e7eb"/>
<rect x="1631" width="1" height="1090" fill="#e5e7eb"/>
<rect x="1663" width="1" height="1090" fill="#e5e7eb"/>
<rect x="1695" width="1" height="1090" fill="#e5e7eb"/>
<rect x="1727" width="1" height="1090" fill="#e5e7eb"/>
<rect x="1759" width="1" height="1090" fill="#e5e7eb"/>
<rect x="1791" width="1" height="1090" fill="#e5e7eb"/>
<rect x="1823" width="1" height="1090" fill="#e5e7eb"/>
<rect x="1855" width="1" height="1090" fill="#e5e7eb"/>
<rect x="1887" width="1" height="1090" fill="#e5e7eb"/>
<rect x="1919" width="1" height="1090" fill="#e5e7eb"/>
<rect width="1" height="1920" transform="matrix(0 1 1 0 -0.000976562 0.00585938)" fill="#e5e7eb"/>
<rect width="1" height="1920" transform="matrix(0 1 1 0 -0.000976562 32.0059)" fill="#e5e7eb"/>
<rect width="1" height="1920" transform="matrix(0 1 1 0 -0.000976562 64.0059)" fill="#e5e7eb"/>
<rect width="1" height="1920" transform="matrix(0 1 1 0 -0.000976562 96.0059)" fill="#e5e7eb"/>
<rect width="1" height="1920" transform="matrix(0 1 1 0 -0.000976562 128.006)" fill="#e5e7eb"/>
<rect width="1" height="1920" transform="matrix(0 1 1 0 -0.000976562 160.006)" fill="#e5e7eb"/>
<rect width="1" height="1920" transform="matrix(0 1 1 0 -0.000976562 192.006)" fill="#e5e7eb"/>
<rect width="1" height="1920" transform="matrix(0 1 1 0 -0.000976562 224.006)" fill="#e5e7eb"/>
<rect width="1" height="1920" transform="matrix(0 1 1 0 -0.000976562 256.006)" fill="#e5e7eb"/>
<rect width="1" height="1920" transform="matrix(0 1 1 0 -0.000976562 288.006)" fill="#e5e7eb"/>
<rect width="1" height="1920" transform="matrix(0 1 1 0 -0.000976562 320.006)" fill="#e5e7eb"/>
<rect width="1" height="1920" transform="matrix(0 1 1 0 -0.000976562 352.006)" fill="#e5e7eb"/>
<rect width="1" height="1920" transform="matrix(0 1 1 0 -0.000976562 384.006)" fill="#e5e7eb"/>
<rect width="1" height="1920" transform="matrix(0 1 1 0 -0.000976562 416.006)" fill="#e5e7eb"/>
<rect width="1" height="1920" transform="matrix(0 1 1 0 -0.000976562 448.006)" fill="#e5e7eb"/>
<rect width="1" height="1920" transform="matrix(0 1 1 0 -0.000976562 480.006)" fill="#e5e7eb"/>
<rect width="1" height="1920" transform="matrix(0 1 1 0 -0.000976562 512.006)" fill="#e5e7eb"/>
<rect width="1" height="1920" transform="matrix(0 1 1 0 -0.000976562 544.006)" fill="#e5e7eb"/>
<rect width="1" height="1920" transform="matrix(0 1 1 0 -0.000976562 576.006)" fill="#e5e7eb"/>
<rect width="1" height="1920" transform="matrix(0 1 1 0 -0.000976562 608.006)" fill="#e5e7eb"/>
<rect width="1" height="1920" transform="matrix(0 1 1 0 -0.000976562 640.006)" fill="#e5e7eb"/>
<rect width="1" height="1920" transform="matrix(0 1 1 0 -0.000976562 672.006)" fill="#e5e7eb"/>
<rect width="1" height="1920" transform="matrix(0 1 1 0 -0.000976562 704.006)" fill="#e5e7eb"/>
<rect width="1" height="1920" transform="matrix(0 1 1 0 -0.000976562 736.006)" fill="#e5e7eb"/>
<rect width="1" height="1920" transform="matrix(0 1 1 0 -0.000976562 768.006)" fill="#e5e7eb"/>
<rect width="1" height="1920" transform="matrix(0 1 1 0 -0.000976562 800.006)" fill="#e5e7eb"/>
<rect width="1" height="1920" transform="matrix(0 1 1 0 -0.000976562 832.006)" fill="#e5e7eb"/>
<rect width="1" height="1920" transform="matrix(0 1 1 0 -0.000976562 864.006)" fill="#e5e7eb"/>
<rect width="1" height="1920" transform="matrix(0 1 1 0 -0.000976562 896.006)" fill="#e5e7eb"/>
<rect width="1" height="1920" transform="matrix(0 1 1 0 -0.000976562 928.006)" fill="#e5e7eb"/>
<rect width="1" height="1920" transform="matrix(0 1 1 0 -0.000976562 960.006)" fill="#e5e7eb"/>
<rect width="1" height="1920" transform="matrix(0 1 1 0 -0.000976562 992.006)" fill="#e5e7eb"/>
<rect width="1" height="1920" transform="matrix(0 1 1 0 -0.000976562 1024.01)" fill="#e5e7eb"/>
<rect width="1" height="1920" transform="matrix(0 1 1 0 -0.000976562 1056.01)" fill="#e5e7eb"/>
<rect width="1" height="1920" transform="matrix(0 1 1 0 0 1088)" fill="#e5e7eb"/>
</g>
<defs>
<clipPath id="clip0_2_364">
<rect width="1920" height="1090" fill="white"/>
</clipPath>
</defs>
</svg>
